<svg xmlns="http://www.w3.org/2000/svg" xmlns:xlink="http://www.w3.org/1999/xlink" width="505" height="401.94" viewBox="0 0 505 401.94">
  <defs>
    <clipPath id="clip-path">
      <rect id="Rectángulo_408146" data-name="Rectángulo 408146" width="14.395" height="4.825" fill="none"/>
    </clipPath>
    <clipPath id="clip-path-2">
      <rect id="Rectángulo_408147" data-name="Rectángulo 408147" width="15.453" height="19.446" fill="none"/>
    </clipPath>
  </defs>
  <g id="Grupo_1115092" data-name="Grupo 1115092" transform="translate(-180.051 -2185)">
    <rect id="Rectángulo_408070" data-name="Rectángulo 408070" width="505" height="401.539" rx="24" transform="translate(180.051 2185)" fill="#ffd9ef"/>
    <g id="Grupo_1115089" data-name="Grupo 1115089" transform="translate(249.051 2227)">
      <g id="Grupo_1115090" data-name="Grupo 1115090">
        <line id="Línea_590" data-name="Línea 590" y1="27.352" transform="translate(27.912 206.098)" fill="none" stroke="#0e1165" stroke-linecap="round" stroke-miterlimit="10" stroke-width="2.061"/>
        <g id="Grupo_1115087" data-name="Grupo 1115087">
          <g id="Grupo_1115091" data-name="Grupo 1115091">
            <path id="Trazado_901046" data-name="Trazado 901046" d="M64.575,246.018H23.437a19.844,19.844,0,0,1,0-39.687H64.575a19.844,19.844,0,1,1,0,39.687" transform="translate(-0.69 -39.596)" fill="#8ea6ff"/>
            <path id="Trazado_901047" data-name="Trazado 901047" d="M33.685,310.812H10.962a10.961,10.961,0,1,1,0-21.922H33.685a10.961,10.961,0,1,1,0,21.922" transform="translate(0 -55.44)" fill="#23e8da"/>
            <rect id="Rectángulo_408121" data-name="Rectángulo 408121" width="25.917" height="2.97" transform="translate(9.555 239.243)" fill="#fdffff"/>
            <rect id="Rectángulo_408122" data-name="Rectángulo 408122" width="25.917" height="2.97" transform="translate(9.555 245.452)" fill="#fdffff"/>
            <rect id="Rectángulo_408123" data-name="Rectángulo 408123" width="32.685" height="11.134" transform="translate(20.411 180.753)" fill="#3459cc"/>
            <rect id="Rectángulo_408124" data-name="Rectángulo 408124" width="3.415" height="11.134" transform="translate(55.105 180.753)" fill="#3459cc"/>
            <rect id="Rectángulo_408125" data-name="Rectángulo 408125" width="3.415" height="11.134" transform="translate(60.231 180.753)" fill="#3459cc"/>
            <rect id="Rectángulo_408126" data-name="Rectángulo 408126" width="3.415" height="11.134" transform="translate(65.359 180.753)" fill="#3459cc"/>
            <rect id="Rectángulo_408127" data-name="Rectángulo 408127" width="3.415" height="11.134" transform="translate(70.485 180.753)" fill="#3459cc"/>
            <path id="Trazado_901048" data-name="Trazado 901048" d="M28.348,213.618l-13.7,13.7,13.7,13.7Z" transform="translate(-2.812 -40.995)" fill="#3459cc"/>
            <path id="Trazado_901049" data-name="Trazado 901049" d="M61.4,90.471A36.178,36.178,0,0,1,72.063,64.72l0,0a36.719,36.719,0,0,1,4.26-3.653L44.889,29.629q-2.1,1.833-4.094,3.82l0,0a80.646,80.646,0,0,0-3.939,109.815l31.452-31.452A36.141,36.141,0,0,1,61.4,90.471" transform="translate(-3.296 -5.686)" fill="#0e1165"/>
            <path id="Trazado_901050" data-name="Trazado 901050" d="M104.4,49.352a36.151,36.151,0,0,1,25.037,9.988l31.28-31.279A80.628,80.628,0,0,0,51.472,24.928L82.908,56.364A36.151,36.151,0,0,1,104.4,49.352" transform="translate(-9.878 -0.984)" fill="#0e1165"/>
            <path id="Trazado_901051" data-name="Trazado 901051" d="M185.265,59.945,159.514,34.2c-.233-.233-.47-.459-.705-.688L127.53,64.786c.238.226.479.446.713.68l25.752,25.75-25.752,25.752a36.416,36.416,0,0,1-51.5,0,36.809,36.809,0,0,1-3.758-4.409L41.529,144.011q1.886,2.171,3.939,4.229a80.735,80.735,0,0,0,114.046,0l25.753-25.753L154,91.215Z" transform="translate(-7.97 -6.43)" fill="#0e1165"/>
            <rect id="Rectángulo_408128" data-name="Rectángulo 408128" width="0.001" height="0.001" transform="translate(208.566 84.785) rotate(-45)" fill="#0e1165"/>
            <path id="Trazado_901052" data-name="Trazado 901052" d="M334.37,60.019a36.332,36.332,0,0,1,10.539,28.438h44.262a80.431,80.431,0,0,0-23.53-59.709l0,0A80.641,80.641,0,0,0,252.97,27.4l31.292,31.292a36.467,36.467,0,0,1,50.108,1.324" transform="translate(-48.546 -0.984)" fill="#0e1165"/>
            <path id="Trazado_901053" data-name="Trazado 901053" d="M347.721,108.246a36.364,36.364,0,0,1-47.141,32.065L267.622,173.27a80.593,80.593,0,0,0,124.361-65.024Z" transform="translate(-51.358 -20.773)" fill="#0e1165"/>
            <path id="Trazado_901054" data-name="Trazado 901054" d="M276.423,130.673l-25.752-25.752-31.27,31.27,25.752,25.753a80.574,80.574,0,0,0,13.215,10.687l32.958-32.958a36.174,36.174,0,0,1-14.9-9" transform="translate(-42.104 -20.135)" fill="#0e1165"/>
            <path id="Trazado_901055" data-name="Trazado 901055" d="M276.422,65.308q.685-.684,1.4-1.324L246.529,32.692q-.7.664-1.378,1.345L219.4,59.788l31.271,31.269Z" transform="translate(-42.104 -6.274)" fill="#0e1165"/>
            <path id="Trazado_901056" data-name="Trazado 901056" d="M243.244,97.494h0L211.974,66.224l-31.269,31.27,31.27,31.272,31.27-31.271Z" transform="translate(-34.678 -12.709)" fill="#0e1165"/>
            <path id="Trazado_901057" data-name="Trazado 901057" d="M61.4,85.343A36.178,36.178,0,0,1,72.063,59.592l0,0a36.8,36.8,0,0,1,4.26-3.653L44.889,24.5q-2.1,1.833-4.094,3.82l0,0a80.646,80.646,0,0,0-3.939,109.815l31.452-31.452A36.141,36.141,0,0,1,61.4,85.343" transform="translate(-3.296 -4.702)" fill="#3459cc"/>
            <path id="Trazado_901058" data-name="Trazado 901058" d="M104.4,44.223a36.152,36.152,0,0,1,25.037,9.989l31.28-31.279A80.629,80.629,0,0,0,51.472,19.8L82.908,51.235A36.156,36.156,0,0,1,104.4,44.223" transform="translate(-9.878)" fill="#23e8da"/>
            <path id="Trazado_901059" data-name="Trazado 901059" d="M185.265,54.816l-25.752-25.75c-.233-.233-.47-.459-.705-.688L127.53,59.657c.238.226.479.446.713.68l25.752,25.75-25.752,25.752a36.416,36.416,0,0,1-51.5,0,36.81,36.81,0,0,1-3.758-4.409L41.529,138.882q1.886,2.171,3.939,4.229a80.735,80.735,0,0,0,114.046,0l25.753-25.753L154,86.086Z" transform="translate(-7.97 -5.446)" fill="#e8bbc7"/>
            <rect id="Rectángulo_408129" data-name="Rectángulo 408129" width="0.001" height="0.001" transform="translate(208.566 80.641) rotate(-45)" fill="#8ea6ff"/>
            <path id="Trazado_901060" data-name="Trazado 901060" d="M334.37,54.891a36.331,36.331,0,0,1,10.539,28.438h44.262a80.431,80.431,0,0,0-23.53-59.709l0,0A80.641,80.641,0,0,0,252.97,22.274l31.292,31.292a36.465,36.465,0,0,1,50.108,1.324" transform="translate(-48.546)" fill="#3459cc"/>
            <path id="Trazado_901061" data-name="Trazado 901061" d="M347.721,103.117a36.365,36.365,0,0,1-47.141,32.065l-32.958,32.959a80.593,80.593,0,0,0,124.361-65.024Z" transform="translate(-51.358 -19.789)" fill="#23e8da"/>
            <path id="Trazado_901062" data-name="Trazado 901062" d="M276.423,125.545,250.671,99.793l-31.27,31.27,25.752,25.753A80.576,80.576,0,0,0,258.368,167.5l32.958-32.958a36.174,36.174,0,0,1-14.9-9" transform="translate(-42.104 -19.151)" fill="#e8bbc7"/>
            <path id="Trazado_901063" data-name="Trazado 901063" d="M276.422,60.18q.685-.685,1.4-1.324L246.529,27.564q-.7.664-1.378,1.345L219.4,54.66l31.271,31.269Z" transform="translate(-42.104 -5.29)" fill="#8ea6ff"/>
            <path id="Trazado_901064" data-name="Trazado 901064" d="M243.244,92.366h0L211.974,61.1l-31.269,31.27,31.27,31.271,31.27-31.27Z" transform="translate(-34.678 -11.725)" fill="#8ea6ff"/>
            <path id="Trazado_901065" data-name="Trazado 901065" d="M308.872,66.191,307,72.7a21.381,21.381,0,0,0-4.856,1.978l-5.993-3.291L290.8,76.672l3.333,5.916a20.825,20.825,0,0,0-2,4.794l-6.589,1.845v7.494l6.589,1.846a20.8,20.8,0,0,0,2,4.793l-3.333,5.916,5.357,5.288,5.993-3.291A21.381,21.381,0,0,0,307,113.251l1.869,6.505h7.592l1.868-6.505a21.382,21.382,0,0,0,4.856-1.978l5.993,3.291,5.357-5.288-3.333-5.916a20.8,20.8,0,0,0,2-4.794l6.589-1.845V89.227l-6.589-1.845a20.825,20.825,0,0,0-2-4.794l3.333-5.916-5.357-5.288-5.993,3.291a21.382,21.382,0,0,0-4.856-1.978l-1.868-6.505Zm3.8,15.014a11.77,11.77,0,1,1-11.922,11.77A11.871,11.871,0,0,1,312.667,81.2" transform="translate(-54.796 -12.702)" fill="#8ea6ff"/>
            <path id="Trazado_901066" data-name="Trazado 901066" d="M115.01,93.426l-9.78-21.837A24,24,0,0,1,135.7,81.418Z" transform="translate(-20.194 -13.34)" fill="#3459cc"/>
            <path id="Trazado_901067" data-name="Trazado 901067" d="M111.65,93.919,94.474,110.577a23.927,23.927,0,0,1,.518-33.834,22.012,22.012,0,0,1,6.878-4.661Z" transform="translate(-16.834 -13.833)" fill="#23e8da"/>
            <path id="Trazado_901068" data-name="Trazado 901068" d="M113.253,96.253l20.7-12.008a23.927,23.927,0,0,1-8.687,32.7,23.6,23.6,0,0,1-29.184-4.037Z" transform="translate(-18.438 -16.167)" fill="#8ea6ff"/>
            <rect id="Rectángulo_408130" data-name="Rectángulo 408130" width="55.518" height="3.886" transform="translate(280.518 307.383)" fill="#3459cc"/>
            <path id="Trazado_901069" data-name="Trazado 901069" d="M433,381.923a3.625,3.625,0,1,1-3.626-3.625A3.626,3.626,0,0,1,433,381.923" transform="translate(-81.704 -72.598)" fill="#3459cc"/>
            <rect id="Rectángulo_408131" data-name="Rectángulo 408131" width="55.518" height="3.886" transform="translate(280.518 318.769)" fill="#3459cc"/>
            <path id="Trazado_901070" data-name="Trazado 901070" d="M433,396.013a3.625,3.625,0,1,1-3.626-3.624A3.626,3.626,0,0,1,433,396.013" transform="translate(-81.704 -75.302)" fill="#3459cc"/>
            <rect id="Rectángulo_408132" data-name="Rectángulo 408132" width="55.518" height="3.886" transform="translate(280.518 330.155)" fill="#3459cc"/>
            <path id="Trazado_901071" data-name="Trazado 901071" d="M433,410.1a3.625,3.625,0,1,1-3.626-3.625A3.626,3.626,0,0,1,433,410.1" transform="translate(-81.704 -78.006)" fill="#3459cc"/>
            <rect id="Rectángulo_408133" data-name="Rectángulo 408133" width="55.518" height="3.886" transform="translate(280.518 341.541)" fill="#3459cc"/>
            <path id="Trazado_901072" data-name="Trazado 901072" d="M433,424.193a3.625,3.625,0,1,1-3.626-3.624A3.626,3.626,0,0,1,433,424.193" transform="translate(-81.704 -80.71)" fill="#3459cc"/>
            <rect id="Rectángulo_408134" data-name="Rectángulo 408134" width="127.262" height="117.081" transform="translate(231.149 179.735)" fill="#0e1165"/>
            <rect id="Rectángulo_408135" data-name="Rectángulo 408135" width="127.262" height="117.081" transform="translate(226.854 175.44)" fill="#ffa3d9"/>
            <rect id="Rectángulo_408136" data-name="Rectángulo 408136" width="127.262" height="117.081" transform="translate(222.877 171.462)" fill="#ffd9ef"/>
            <rect id="Rectángulo_408137" data-name="Rectángulo 408137" width="116.868" height="107.519" transform="translate(228.074 176.244)" fill="none" stroke="#fff" stroke-linecap="round" stroke-miterlimit="10" stroke-width="1.075"/>
            <path id="Trazado_901073" data-name="Trazado 901073" d="M299.93,325.2h0a7.229,7.229,0,0,0,7.228-7.228V261.644a7.228,7.228,0,0,0-14.457,0v56.328a7.229,7.229,0,0,0,7.228,7.228" transform="translate(-56.171 -48.824)" fill="#fff"/>
            <path id="Trazado_901074" data-name="Trazado 901074" d="M326.982,322.929h0a7.229,7.229,0,0,0,7.228-7.228v-65.89a7.228,7.228,0,0,0-14.457,0V315.7a7.229,7.229,0,0,0,7.228,7.228" transform="translate(-61.363 -46.553)" fill="#fff"/>
            <path id="Trazado_901075" data-name="Trazado 901075" d="M354.034,319.658h0a7.229,7.229,0,0,0,7.228-7.228V232.766a7.228,7.228,0,0,0-14.457,0V312.43a7.229,7.229,0,0,0,7.228,7.228" transform="translate(-66.554 -43.282)" fill="#fff"/>
            <path id="Trazado_901076" data-name="Trazado 901076" d="M381.086,326.532h0a7.229,7.229,0,0,0,7.228-7.228V268.582a7.228,7.228,0,0,0-14.457,0V319.3a7.229,7.229,0,0,0,7.228,7.228" transform="translate(-71.746 -50.155)" fill="#fff"/>
            <path id="Trazado_901077" data-name="Trazado 901077" d="M408.138,319.658h0a7.229,7.229,0,0,0,7.228-7.228V232.766a7.228,7.228,0,0,0-14.457,0V312.43a7.229,7.229,0,0,0,7.228,7.228" transform="translate(-76.937 -43.282)" fill="#ffa3d9"/>
            <path id="Trazado_901078" data-name="Trazado 901078" d="M15.509,411.059H111.83a6.29,6.29,0,0,0,6.289-6.289v-57.73H9.219v57.73a6.29,6.29,0,0,0,6.29,6.289" transform="translate(-1.769 -66.599)" fill="#0e1165"/>
            <path id="Trazado_901079" data-name="Trazado 901079" d="M15.509,409.318H111.83a6.29,6.29,0,0,0,6.289-6.289V345.3H9.219v57.73a6.29,6.29,0,0,0,6.29,6.289" transform="translate(-1.769 -66.265)" fill="#8ea6ff"/>
            <path id="Trazado_901080" data-name="Trazado 901080" d="M9.219,343.252h108.9v-2.326a6.29,6.29,0,0,0-6.29-6.289H15.509a6.29,6.29,0,0,0-6.29,6.289Z" transform="translate(-1.769 -64.219)" fill="#ffa3d9"/>
            <path id="Trazado_901081" data-name="Trazado 901081" d="M23.166,339.469a2.809,2.809,0,1,1-2.808-2.808,2.808,2.808,0,0,1,2.808,2.808" transform="translate(-3.368 -64.607)" fill="#fdffff"/>
            <path id="Trazado_901082" data-name="Trazado 901082" d="M32.6,339.469a2.809,2.809,0,1,1-2.809-2.808,2.809,2.809,0,0,1,2.809,2.808" transform="translate(-5.178 -64.607)" fill="#3459cc"/>
            <path id="Trazado_901083" data-name="Trazado 901083" d="M42.034,339.469a2.809,2.809,0,1,1-2.809-2.808,2.809,2.809,0,0,1,2.809,2.808" transform="translate(-6.989 -64.607)" fill="#0e1165"/>
            <rect id="Rectángulo_408138" data-name="Rectángulo 408138" width="34.963" height="18.011" transform="translate(13.709 317.537)" fill="#fdffff"/>
            <rect id="Rectángulo_408139" data-name="Rectángulo 408139" width="56.833" height="4.074" transform="translate(54.332 285.392)" fill="#fdffff"/>
            <rect id="Rectángulo_408140" data-name="Rectángulo 408140" width="56.833" height="4.074" transform="translate(54.332 293.073)" fill="#fdffff"/>
            <rect id="Rectángulo_408141" data-name="Rectángulo 408141" width="56.833" height="4.074" transform="translate(54.332 300.753)" fill="#fdffff"/>
            <rect id="Rectángulo_408142" data-name="Rectángulo 408142" width="56.833" height="4.074" transform="translate(54.332 308.433)" fill="#fdffff"/>
            <rect id="Rectángulo_408143" data-name="Rectángulo 408143" width="56.833" height="4.074" transform="translate(54.332 316.113)" fill="#fdffff"/>
            <rect id="Rectángulo_408144" data-name="Rectángulo 408144" width="56.833" height="4.074" transform="translate(54.332 323.794)" fill="#fdffff"/>
            <rect id="Rectángulo_408145" data-name="Rectángulo 408145" width="56.833" height="4.074" transform="translate(54.332 331.474)" fill="#fdffff"/>
            <path id="Trazado_901084" data-name="Trazado 901084" d="M211.046,336.032c14.56,0,22.232-20.656,25.08-30.588-3.7-.868-6.184-1.536-6.718-1.952-2.63-2.045-2.63-21.041-2.63-21.041l-14.466,2.03-14.466-2.03s0,19-2.63,21.041c-.548.426-3.151,1.118-7.005,2.019,2.219,10.169,8.458,30.521,22.836,30.521" transform="translate(-36.119 -54.204)" fill="#d18491"/>
            <path id="Trazado_901085" data-name="Trazado 901085" d="M271.707,327.071c-7.22-6.289-40.429-12.763-54.946-16.168-2.848,9.932-10.52,30.588-25.08,30.588-14.378,0-20.617-20.352-22.836-30.521-14.662,3.422-47.484,9.853-54.659,16.1-9.06,7.891-26.887,92.057-26.887,92.057H298.594s-17.827-84.166-26.887-92.057" transform="translate(-16.753 -59.664)" fill="#3459cc"/>
            <path id="Trazado_901086" data-name="Trazado 901086" d="M361.7,317.487l6.137,87.089h-28.83s3.4-92.641,3.7-93.518c0,0,3.461-76.541,8.475-75.984,1.315.146,3.367,3.674,3.541,6.713.5,8.73-1,25.691-1,25.691s15.868-1.718,25.8,10.264-10.521,25.425-10.521,25.425Z" transform="translate(-65.057 -45.111)" fill="#d18491"/>
            <path id="Trazado_901087" data-name="Trazado 901087" d="M150.531,203.331a15.644,15.644,0,0,1-12.538-24.524c-4.522-4.033-6.106-11.005-4.885-16.94a17.739,17.739,0,0,1,11.519-12.988c-.693-4.058,1.788-9.33,4.87-12.058a16.591,16.591,0,0,1,16.455-3.048c1.615-6.09,6.13-11.884,12.283-13.241a17.649,17.649,0,0,1,17,5.83c4.281-5.379,11.564-9.622,18.345-8.486s12.675,7.232,12.685,14.108A19.327,19.327,0,0,1,244.04,133.9a16.229,16.229,0,0,1,6.82,16.056,9.615,9.615,0,0,1,5.2,1.229,18.056,18.056,0,0,1,8.647,23.114,16.951,16.951,0,0,1,4.746,13.327,22.692,22.692,0,0,1-2.634,7.876c-2.545,4.879-6.47,9.454-11.79,10.857" transform="translate(-25.468 -22.586)" fill="#0e1165"/>
            <path id="Trazado_901088" data-name="Trazado 901088" d="M251.081,206.472c0,23.935-15.142,60.091-43.338,60.091S164.4,230.406,164.4,206.472s19.4-51.729,43.338-51.729,43.338,27.794,43.338,51.729" transform="translate(-31.55 -29.696)" fill="#d18491"/>
            <g id="Grupo_1115079" data-name="Grupo 1115079" transform="translate(169.396 212.285)" style="mix-blend-mode: multiply;isolation: isolate">
              <g id="Grupo_1115078" data-name="Grupo 1115078">
                <g id="Grupo_1115077" data-name="Grupo 1115077" clip-path="url(#clip-path)">
                  <path id="Trazado_901089" data-name="Trazado 901089" d="M218.705,262.76a21.118,21.118,0,0,0-9.081,1.254,10.021,10.021,0,0,0,7.239,3.509c3.012,0,5.4-1.771,7.156-3.8a27.155,27.155,0,0,0-5.313-.96" transform="translate(-209.624 -262.698)" fill="#d18491"/>
                </g>
              </g>
            </g>
            <path id="Trazado_901090" data-name="Trazado 901090" d="M217.878,261.591a27.156,27.156,0,0,1,5.313.96,22.272,22.272,0,0,0,3.569-5.946,21.287,21.287,0,0,1-10.125,2.226,51.338,51.338,0,0,1-11.323-1.251,19.637,19.637,0,0,0,3.484,5.265,21.118,21.118,0,0,1,9.081-1.254" transform="translate(-39.401 -49.244)" fill="#0e1165"/>
            <path id="Trazado_901091" data-name="Trazado 901091" d="M189.434,281.283a29.67,29.67,0,0,0,5.37,3.635,36.815,36.815,0,0,0,5.886,2.55,37.873,37.873,0,0,0,6.21,1.464c1.044.2,2.113.239,3.167.368,1.061.048,2.128.088,3.188.087a33.05,33.05,0,0,0,6.31-.639,30.578,30.578,0,0,0,6.089-1.813,31.431,31.431,0,0,0,5.658-3,29.331,29.331,0,0,0,5.016-4.105,22.52,22.52,0,0,1-4.467,4.845,27.23,27.23,0,0,1-5.607,3.591,30.4,30.4,0,0,1-12.985,2.992,34.9,34.9,0,0,1-13.082-2.426,30.774,30.774,0,0,1-5.864-3.139,22.782,22.782,0,0,1-4.89-4.415" transform="translate(-36.354 -53.702)" fill="#0e1165"/>
            <path id="Trazado_901092" data-name="Trazado 901092" d="M202.2,221.311a4.922,4.922,0,1,1-4.922-4.922,4.922,4.922,0,0,1,4.922,4.922" transform="translate(-36.914 -41.526)" fill="#0e1165"/>
            <path id="Trazado_901093" data-name="Trazado 901093" d="M229.855,221.311a4.922,4.922,0,1,0,4.922-4.922,4.922,4.922,0,0,0-4.922,4.922" transform="translate(-44.111 -41.526)" fill="#0e1165"/>
            <path id="Trazado_901094" data-name="Trazado 901094" d="M180.454,214.945a14.372,14.372,0,0,1,1.393-3.419,16.765,16.765,0,0,1,2.266-3.018,19.472,19.472,0,0,1,2.909-2.478,21.628,21.628,0,0,1,3.371-1.861c2.337-1.021,4.873-2.136,7.628-1.746a10.11,10.11,0,0,1,3.937,1.295,6.264,6.264,0,0,1,2.745,3.089l-.307.347a16.153,16.153,0,0,0-3.424-.318,29.925,29.925,0,0,0-3.055.213c-1.009.116-2.023.189-3.089.231a14.067,14.067,0,0,0-3.207.382,18.133,18.133,0,0,0-3.092,1.052,16.7,16.7,0,0,0-2.917,1.557,16.021,16.021,0,0,0-2.6,2.125,16.35,16.35,0,0,0-2.126,2.726Z" transform="translate(-34.63 -38.831)" fill="#0e1165"/>
            <path id="Trazado_901095" data-name="Trazado 901095" d="M250.1,215.121a16.238,16.238,0,0,0-2.126-2.726,16.035,16.035,0,0,0-2.6-2.126,16.778,16.778,0,0,0-2.916-1.556,18.143,18.143,0,0,0-3.093-1.052,14.058,14.058,0,0,0-3.207-.382c-1.067-.042-2.081-.116-3.09-.231a29.692,29.692,0,0,0-3.055-.213,16.207,16.207,0,0,0-3.424.317l-.307-.346a6.264,6.264,0,0,1,2.745-3.089,10.11,10.11,0,0,1,3.937-1.295c2.755-.389,5.291.724,7.628,1.746a21.552,21.552,0,0,1,3.371,1.861,19.513,19.513,0,0,1,2.909,2.478,16.8,16.8,0,0,1,2.266,3.019,14.371,14.371,0,0,1,1.393,3.419Z" transform="translate(-43.424 -38.831)" fill="#0e1165"/>
            <path id="Trazado_901096" data-name="Trazado 901096" d="M159.786,216.6c1.642-.019,3.044-1.164,4.16-2.369,5.876-6.346,7.594-15.532,7.51-24.181a14.809,14.809,0,0,0,11.394-.875,14.1,14.1,0,0,0,6.63-8.954,15.762,15.762,0,0,0,11.417,3.412,14.13,14.13,0,0,0,9.615-5.85c4.732,4.934,12.615,7.4,18.947,4.825,2.063,4.42,6.781,7.8,11.518,8.97.806,4.581.394,10.024,2.27,14.281s4.918,8.169,9.112,10.18c2.366-10.29,1.053-21.427-2.045-31.521-1.767-5.758-3.795-11.5-7.038-16.58-7.7-12.049-21.844-19.136-36.1-20.214a32.639,32.639,0,0,0-13.062,1.295c-6.691,2.3-11.963,7.583-16,13.394-10.6,15.261-16.655,35.684-18.324,54.188" transform="translate(-30.664 -28.321)" fill="#0e1165"/>
            <path id="Trazado_901097" data-name="Trazado 901097" d="M286.067,230.2a17.738,17.738,0,0,1-8.966,11.772,9.865,9.865,0,0,1-4.651,1.33c-3.708-.029-6.862-3.2-7.774-6.681s-.028-7.142,1.3-10.454c1.721-4.28,4.786-8.677,9.51-9.368,7.616-1.114,11.884,7.279,10.578,13.4" transform="translate(-50.721 -41.587)" fill="#d18491"/>
            <g id="Grupo_1115082" data-name="Grupo 1115082" transform="translate(217.66 178.586)" style="mix-blend-mode: multiply;isolation: isolate">
              <g id="Grupo_1115081" data-name="Grupo 1115081">
                <g id="Grupo_1115080" data-name="Grupo 1115080" clip-path="url(#clip-path-2)">
                  <path id="Trazado_901098" data-name="Trazado 901098" d="M269.35,239.458a9,9,0,0,0,4.356-2.292,1.739,1.739,0,0,0,.545-.8c.143-.608-.319-1.19-.751-1.665l-2.619-2.885a1.522,1.522,0,0,1-.411-.643,1.435,1.435,0,0,1,.138-.81c1.265-3.3,2.739-6.853,5.889-8.613a5.222,5.222,0,0,1,2.815-.743,5.169,5.169,0,0,1,3.67,2.174,13.249,13.249,0,0,1,1.816,3.9s.323,7.3-5.172,11.263-10.278,1.121-10.278,1.121" transform="translate(-269.35 -220.997)" fill="#d18491"/>
                </g>
              </g>
            </g>
            <path id="Trazado_901099" data-name="Trazado 901099" d="M284.8,226.914a14.318,14.318,0,0,0-2.256-3.782,4.586,4.586,0,0,0-3.526-1.633,3.848,3.848,0,0,0-1.793.5,4.907,4.907,0,0,0-.739.613q-.373.36-.719.766a23.371,23.371,0,0,0-2.485,3.549c-.378.627-.742,1.266-1.085,1.917l-.5.981-.238.495-.115.245-.047.1c-2.777-1.611-.926-.2-1.484-.653l0,.01,0-.01.014-.027.027-.06.036-.078.006-.012a.966.966,0,0,1,.074-.131c.1-.1-.1.038.259-.242,2.368.879.666,1.033,1.186.9l-.02.068-.043.129-.066.221-.033.146a.028.028,0,0,0,0-.012.374.374,0,0,0-.012-.074s0,0,0,.006a4.306,4.306,0,0,0,.542.68c.494.566.976,1.143,1.454,1.723l.721.867a4.2,4.2,0,0,1,.71,1.091,1.889,1.889,0,0,1,.144.781,1.536,1.536,0,0,1-.26.78,3.961,3.961,0,0,1-.92.881,8.452,8.452,0,0,1-4.273,1.652,9.706,9.706,0,0,0,3.727-2.287,3.374,3.374,0,0,0,.624-.747.583.583,0,0,0-.059-.595,11.414,11.414,0,0,0-1.4-1.527c-.532-.532-1.059-1.068-1.575-1.613l-.392-.41a2.406,2.406,0,0,1-.471-.658,1.566,1.566,0,0,1-.091-.26,1.458,1.458,0,0,1-.032-.213v-.154a2.665,2.665,0,0,1,.055-.409l.077-.322.039-.141c0-.016,0-.01,0,0,.523-.137-1.178.01,1.19.883.357-.287.154-.137.253-.233a.692.692,0,0,0,.065-.115v0l-.021.053-.027.069-.015.037-.009.022-.012.026c-.561-.45,1.286.975-1.488-.647l.065-.162.118-.268.242-.524.505-1.034c.347-.683.711-1.358,1.1-2.022a23.153,23.153,0,0,1,2.758-3.76c.273-.288.562-.566.868-.831a6.2,6.2,0,0,1,1.042-.759,5.1,5.1,0,0,1,4.96.221,6.3,6.3,0,0,1,1.75,1.686,11.357,11.357,0,0,1,1.606,4.3" transform="translate(-51.69 -42.251)" fill="#0e1165"/>
            <path id="Trazado_901100" data-name="Trazado 901100" d="M144.78,230.2a17.738,17.738,0,0,0,8.966,11.772,9.865,9.865,0,0,0,4.651,1.33c3.708-.029,6.862-3.2,7.774-6.681s.028-7.142-1.3-10.454c-1.721-4.28-4.786-8.677-9.51-9.368-7.616-1.114-11.884,7.279-10.578,13.4" transform="translate(-27.739 -41.587)" fill="#d18491"/>
            <g id="Grupo_1115085" data-name="Grupo 1115085" transform="translate(119.273 178.586)" style="mix-blend-mode: multiply;isolation: isolate">
              <g id="Grupo_1115084" data-name="Grupo 1115084">
                <g id="Grupo_1115083" data-name="Grupo 1115083" clip-path="url(#clip-path-2)">
                  <path id="Trazado_901101" data-name="Trazado 901101" d="M163.051,239.458a9,9,0,0,1-4.356-2.292,1.739,1.739,0,0,1-.545-.8c-.144-.608.319-1.19.751-1.665l2.619-2.885a1.522,1.522,0,0,0,.411-.643,1.442,1.442,0,0,0-.138-.81c-1.265-3.3-2.739-6.853-5.89-8.613a4.662,4.662,0,0,0-6.485,1.431,13.249,13.249,0,0,0-1.816,3.9s-.323,7.3,5.172,11.263,10.278,1.121,10.278,1.121" transform="translate(-147.598 -220.997)" fill="#d18491"/>
                </g>
              </g>
            </g>
            <path id="Trazado_901102" data-name="Trazado 901102" d="M147.6,226.915a11.416,11.416,0,0,1,1.577-4.268,5.422,5.422,0,0,1,4.112-2.473,5.489,5.489,0,0,1,2.472.5,8.991,8.991,0,0,1,2.067,1.291,12.646,12.646,0,0,1,2.92,3.73,34.086,34.086,0,0,1,1.791,4.2,3.088,3.088,0,0,1,.187.73,1.633,1.633,0,0,1-.225,1.017,7.16,7.16,0,0,1-.841.962c-.512.54-1.034,1.07-1.56,1.6a9.486,9.486,0,0,0-1.358,1.5.558.558,0,0,0-.024.585,3.8,3.8,0,0,0,.636.743,9.736,9.736,0,0,0,3.7,2.26,8.453,8.453,0,0,1-4.239-1.622,4.375,4.375,0,0,1-.916-.85,1.629,1.629,0,0,1-.187-1.543,3.8,3.8,0,0,1,.691-1.111l.715-.862q.709-.863,1.439-1.707a7.666,7.666,0,0,0,.6-.735c.022-.067,0,0,0-.054a2.072,2.072,0,0,0-.122-.338,36.4,36.4,0,0,0-1.784-3.971,11.5,11.5,0,0,0-2.47-3.317A5.925,5.925,0,0,0,153.3,221.5a4.636,4.636,0,0,0-3.465,1.662,14.493,14.493,0,0,0-2.232,3.751" transform="translate(-28.326 -42.252)" fill="#0e1165"/>
            <path id="Trazado_901103" data-name="Trazado 901103" d="M216.975,216.266a15.144,15.144,0,0,0,3.622,8.864c1.053,1.165,2.322,2.231,3.551,3.522a10.469,10.469,0,0,1,2.656,4.875,10.785,10.785,0,0,1-.337,5.56,9.418,9.418,0,0,1-3.263,4.483,9.789,9.789,0,0,1-5.062,1.836,8.638,8.638,0,0,1-5.022-1.185,9.773,9.773,0,0,0,8.949-2.054,8.635,8.635,0,0,0,2.476-8.15,8.488,8.488,0,0,0-2.034-3.918c-1-1.229-2.289-2.375-3.324-3.852a12.789,12.789,0,0,1-2.212-9.979" transform="translate(-40.899 -41.503)" fill="#0e1165"/>
            <path id="Trazado_901104" data-name="Trazado 901104" d="M157.56,194.319a10.014,10.014,0,0,1,7.548-12.664c-.331-5.291,2.809-10.432,7.906-11.883" transform="translate(-30.158 -32.58)" fill="none" stroke="#fff" stroke-linecap="round" stroke-miterlimit="10" stroke-width="1.045"/>
            <path id="Trazado_901105" data-name="Trazado 901105" d="M172.359,151.28a13.806,13.806,0,0,1,15.931,2.836c3.6-2.9,9.672-2.025,12.833,1.35" transform="translate(-33.077 -28.766)" fill="none" stroke="#fff" stroke-linecap="round" stroke-miterlimit="10" stroke-width="1.045"/>
            <path id="Trazado_901106" data-name="Trazado 901106" d="M223.321,135.77a11.691,11.691,0,0,1,14.778,8.74c4.359-.633,8.751,2.278,10.713,6.221" transform="translate(-42.857 -25.963)" fill="none" stroke="#fff" stroke-linecap="round" stroke-miterlimit="10" stroke-width="1.045"/>
            <path id="Trazado_901107" data-name="Trazado 901107" d="M228.7,165.523a13.035,13.035,0,0,1,14.031,7.406c4.7-.858,9.944,2.682,11.038,7.338" transform="translate(-43.89 -31.724)" fill="none" stroke="#fff" stroke-linecap="round" stroke-miterlimit="10" stroke-width="1.045"/>
            <path id="Trazado_901108" data-name="Trazado 901108" d="M274.765,174.966a10,10,0,0,1,5.474,12.5c2.906,1.841,3.267,6.879,1.705,9.944" transform="translate(-52.729 -33.577)" fill="none" stroke="#fff" stroke-linecap="round" stroke-miterlimit="10" stroke-width="1.045"/>
            <path id="Trazado_901109" data-name="Trazado 901109" d="M344.57,300.94c1.828-4.157,3.59-13.041,6.222-16.741s6.929-5.742,11.042-7.637c.715-.33,1.681-.611,2.188-.009a1.667,1.667,0,0,1,.3.919c.455,4.422-2.344,8.512-5.439,11.7a2.339,2.339,0,0,0-.891,1.638,2.366,2.366,0,0,0,.42,1.017,20.932,20.932,0,0,1,2.473,15.955,17.386,17.386,0,0,1-10.665,11.85" transform="translate(-66.125 -53.004)" fill="none" stroke="#0e1165" stroke-linecap="round" stroke-miterlimit="10" stroke-width="2.061"/>
            <path id="Trazado_901110" data-name="Trazado 901110" d="M375.026,318.03a8.86,8.86,0,0,1-10.807-1.022" transform="translate(-69.896 -60.836)" fill="none" stroke="#0e1165" stroke-linecap="round" stroke-miterlimit="10" stroke-width="2.061"/>
            <path id="Trazado_901111" data-name="Trazado 901111" d="M382.448,284.239a63.784,63.784,0,0,1-12.195,28.247c-.129.169-.311.357-.518.305s-.12-.474.059-.358" transform="translate(-70.931 -54.547)" fill="none" stroke="#0e1165" stroke-linecap="round" stroke-miterlimit="10" stroke-width="2.061"/>
            <path id="Trazado_901112" data-name="Trazado 901112" d="M373.668,278.482c-1.17,7.813-4.81,15.007-8.4,22.046" transform="translate(-70.098 -53.442)" fill="none" stroke="#0e1165" stroke-linecap="round" stroke-miterlimit="10" stroke-width="2.061"/>
            <path id="Trazado_901113" data-name="Trazado 901113" d="M179.424,313.8s6.016,34.44,29.885,34.44,30.74-34.356,30.74-34.356" transform="translate(-34.433 -60.221)" fill="none" stroke="#0e1165" stroke-linecap="round" stroke-miterlimit="10" stroke-width="2.061"/>
            <path id="Trazado_901114" data-name="Trazado 901114" d="M134.784,343.573a398.928,398.928,0,0,0,7.149,81.094" transform="translate(-25.858 -65.934)" fill="none" stroke="#0e1165" stroke-linecap="round" stroke-miterlimit="10" stroke-width="2.061"/>
            <path id="Trazado_901115" data-name="Trazado 901115" d="M287.2,343.573a398.93,398.93,0,0,1-7.149,81.094" transform="translate(-53.744 -65.934)" fill="none" stroke="#0e1165" stroke-linecap="round" stroke-miterlimit="10" stroke-width="2.061"/>
            <path id="Trazado_901116" data-name="Trazado 901116" d="M128.545,417.968H273.178v-79.61a6.05,6.05,0,0,0-6.05-6.05H134.6a6.05,6.05,0,0,0-6.05,6.05Z" transform="translate(-24.669 -63.772)" fill="#8ea6ff"/>
            <path id="Trazado_901117" data-name="Trazado 901117" d="M135.942,417.147H268.621v-73.03a5.55,5.55,0,0,0-5.55-5.55H141.492a5.55,5.55,0,0,0-5.55,5.55Z" transform="translate(-26.088 -64.973)" fill="none" stroke="#3459cc" stroke-linecap="round" stroke-miterlimit="10" stroke-width="1.933"/>
            <path id="Trazado_901118" data-name="Trazado 901118" d="M229.189,385.313a14.628,14.628,0,1,1-14.627-14.627,14.627,14.627,0,0,1,14.627,14.627" transform="translate(-38.369 -71.137)" fill="#fdffff"/>
            <path id="Trazado_901119" data-name="Trazado 901119" d="M224.142,330.492h-18.42a3.855,3.855,0,0,1,0-7.711h18.42a3.855,3.855,0,0,1,0,7.711" transform="translate(-38.74 -61.944)" fill="#0e1165"/>
            <path id="Trazado_901120" data-name="Trazado 901120" d="M122.026,442.938H277.2v-1.49a6.48,6.48,0,0,0-6.479-6.48H128.506a6.48,6.48,0,0,0-6.48,6.48Z" transform="translate(-23.418 -83.473)" fill="#fdffff"/>
            <path id="Trazado_901121" data-name="Trazado 901121" d="M210.689,326.743a2.361,2.361,0,1,1-2.36-2.36,2.361,2.361,0,0,1,2.36,2.36" transform="translate(-39.526 -62.251)" fill="#fdffff"/>
            <path id="Trazado_901122" data-name="Trazado 901122" d="M217.087,328.8H225.7a1.771,1.771,0,1,0,0-3.541h-8.617a1.771,1.771,0,1,0,0,3.541" transform="translate(-41.32 -62.419)" fill="#8ea6ff"/>
            <path id="Trazado_901123" data-name="Trazado 901123" d="M232.368,384.323a18.8,18.8,0,1,1-18.8-18.8A18.8,18.8,0,0,1,232.368,384.323Z" transform="translate(-37.379 -70.147)" fill="none" stroke="#3459cc" stroke-linecap="round" stroke-miterlimit="10" stroke-width="1.933"/>
            <line id="Línea_591" data-name="Línea 591" x2="282.923" transform="translate(18.439 358.652)" fill="none" stroke="#0e1165" stroke-linecap="round" stroke-miterlimit="10" stroke-width="1.988"/>
            <line id="Línea_592" data-name="Línea 592" x2="14.776" transform="translate(307.252 358.652)" fill="none" stroke="#0e1165" stroke-linecap="round" stroke-miterlimit="10" stroke-width="1.988"/>
            <line id="Línea_593" data-name="Línea 593" x2="37.818" transform="translate(328.834 358.652)" fill="none" stroke="#0e1165" stroke-linecap="round" stroke-miterlimit="10" stroke-width="1.988"/>
            <line id="Línea_594" data-name="Línea 594" x2="11.392" transform="translate(1.497 358.652)" fill="none" stroke="#0e1165" stroke-linecap="round" stroke-miterlimit="10" stroke-width="1.988"/>
            <path id="Trazado_901124" data-name="Trazado 901124" d="M65.743,286.756a33.9,33.9,0,1,0,5.718-47.6,33.9,33.9,0,0,0-5.718,47.6" transform="translate(-11.227 -44.506)" fill="#0e1165"/>
            <path id="Trazado_901125" data-name="Trazado 901125" d="M138.484,277.239a36.759,36.759,0,0,0,26.322-3.319c-8.078,8.248-18.016,14.568-29.487,15.865" transform="translate(-25.969 -52.567)" fill="#0e1165"/>
            <path id="Trazado_901126" data-name="Trazado 901126" d="M89.916,292.127l-18.194-18.2a6.072,6.072,0,0,1,8.587-8.587l9.607,9.608,31.894-31.894a6.072,6.072,0,0,1,8.587,8.587Z" transform="translate(-14.588 -47.468)" fill="#ffa3d9"/>
          </g>
        </g>
        <text id="DEV" transform="translate(17.812 297.118)" fill="#fdffff" font-size="14" font-family="SegoeUI, Segoe UI"><tspan x="0" y="0" letter-spacing="0.05em">D</tspan><tspan y="0" letter-spacing="0.059em">E</tspan><tspan y="0">V</tspan></text>
        <text id="OPS" transform="translate(17.889 310.391)" fill="#fdffff" font-size="14" font-family="SegoeUI, Segoe UI"><tspan x="0" y="0" letter-spacing="0.05em">O</tspan><tspan y="0" letter-spacing="0.049em">P</tspan><tspan y="0">S</tspan></text>
      </g>
    </g>
  </g>
</svg>
