<svg xmlns="http://www.w3.org/2000/svg" width="85" height="85" viewBox="0 0 85 85">
  <g id="Grupo_1115101" data-name="Grupo 1115101" transform="translate(-305 -794)">
    <g id="Grupo_1115071" data-name="Grupo 1115071" transform="translate(-828 -1007)">
      <rect id="Rect치ngulo_374607" data-name="Rect치ngulo 374607" width="85" height="52.063" rx="11" transform="translate(1133 1817.592)" fill="#23e8da"/>
      <g id="codigo-binario" transform="translate(1141.533 1809)">
        <path id="Trazado_816704" data-name="Trazado 816704" d="M73.489,44.994a34.007,34.007,0,0,1-26.5,33.166s-.621-1.449-1.388-1.449-1.388,1.953-1.388,1.953a34.293,34.293,0,0,1-4.485.324c-1.521.01-.621-2.277-1.388-2.277s-1.388,2.184-1.388,2.184A33.926,33.926,0,0,1,31.332,78c-.5-.124-.815-.793-1.308-.939-.431-.127-1.043.271-1.467.128a34,34,0,1,1,25.09-63.114,33.312,33.312,0,0,1,3.937,2.369,34.608,34.608,0,0,1,3.295,2.121,33.929,33.929,0,0,1,12.61,26.427Z" transform="translate(-5.5 -9.474)" fill="#012d4e"/>
        <path id="Trazado_816705" data-name="Trazado 816705" d="M79.126,167.4v12.554a1.388,1.388,0,0,1-2.775,0V168.787h-1.3a1.388,1.388,0,0,1,0-2.775h2.683A1.388,1.388,0,0,1,79.126,167.4ZM91.1,184.537H88.422a1.388,1.388,0,0,0,0,2.775h1.3v11.166a1.388,1.388,0,0,0,2.775,0V185.925A1.388,1.388,0,0,0,91.1,184.537Zm-26.04,0H62.382a1.388,1.388,0,0,0,0,2.775h1.3v11.166a1.388,1.388,0,0,0,2.775,0V185.925A1.387,1.387,0,0,0,65.065,184.537ZM77.739,202.9H75.056a1.388,1.388,0,0,0,0,2.775h1.3v5.022q1.363.463,2.775.812v-7.222A1.388,1.388,0,0,0,77.739,202.9Zm37.577-36.885h-2.683a1.388,1.388,0,1,0,0,2.775h1.3v11.166a1.388,1.388,0,0,0,2.775,0V167.4A1.388,1.388,0,0,0,115.316,166.012Zm-11.423,0H101.21a1.388,1.388,0,1,0,0,2.775h1.3v11.166a1.388,1.388,0,0,0,2.775,0V167.4A1.387,1.387,0,0,0,103.893,166.012Z" transform="translate(-53.294 -142.977)" fill="#0ab59e"/>
        <path id="Trazado_816706" data-name="Trazado 816706" d="M75.558,64.048A5.023,5.023,0,0,1,70.54,59.03V53.224a5.018,5.018,0,1,1,10.035,0V59.03A5.023,5.023,0,0,1,75.558,64.048Zm0-13.066a2.245,2.245,0,0,0-2.243,2.243V59.03a2.243,2.243,0,1,0,4.485,0V53.224A2.245,2.245,0,0,0,75.558,50.982ZM49.518,64.048A5.023,5.023,0,0,1,44.5,59.03V53.224a5.018,5.018,0,1,1,10.035,0V59.03A5.023,5.023,0,0,1,49.518,64.048Zm0-13.066a2.245,2.245,0,0,0-2.243,2.243V59.03a2.243,2.243,0,1,0,4.485,0V53.224A2.245,2.245,0,0,0,49.518,50.982Zm26.04,34.11A5.023,5.023,0,0,0,70.54,90.11v4.74q1.259.093,2.543.094h.232V90.11a2.243,2.243,0,1,1,4.485,0v4.509q1.407-.2,2.775-.5V90.11A5.023,5.023,0,0,0,75.558,85.092ZM62.192,82.317A5.023,5.023,0,0,1,57.174,77.3V71.494a5.018,5.018,0,1,1,10.035,0V77.3A5.023,5.023,0,0,1,62.192,82.317Zm0-13.066a2.245,2.245,0,0,0-2.243,2.243V77.3a2.243,2.243,0,0,0,4.485,0V71.494A2.245,2.245,0,0,0,62.192,69.251ZM75.558,45.366a5.023,5.023,0,0,1-5.018-5.018V34.543a5.018,5.018,0,1,1,10.035,0v5.806A5.023,5.023,0,0,1,75.558,45.366Zm0-13.066a2.245,2.245,0,0,0-2.243,2.243v5.806a2.243,2.243,0,1,0,4.485,0V34.543A2.245,2.245,0,0,0,75.558,32.3Zm8.858,2.243v5.806a5.018,5.018,0,1,0,10.035,0V34.543c0-.012,0-.023,0-.035a34,34,0,0,0-7.214-4.476,5.024,5.024,0,0,0-2.821,4.511Zm7.26,0v5.806a2.243,2.243,0,1,1-4.485,0V34.543a2.243,2.243,0,1,1,4.485,0Z" transform="translate(-39.089 -25.428)" fill="#5affb7"/>
        <path id="Trazado_816707" data-name="Trazado 816707" d="M157.556,16.65a2.775,2.775,0,1,1-2.775-2.775A2.775,2.775,0,0,1,157.556,16.65Zm-2.775-5.55A2.081,2.081,0,1,0,152.7,9.019,2.081,2.081,0,0,0,154.781,11.1Zm0-6.938A2.081,2.081,0,1,0,152.7,2.081,2.081,2.081,0,0,0,154.781,4.163Zm27.241,43.013A2.775,2.775,0,1,1,184.8,44.4,2.775,2.775,0,0,1,182.022,47.176Zm-2.081,4.856a2.081,2.081,0,1,0,2.081-2.081A2.081,2.081,0,0,0,179.941,52.032Zm0,6.938a2.081,2.081,0,1,0,2.081-2.081A2.081,2.081,0,0,0,179.941,58.97Z" transform="translate(-131.678)" fill="#006e66"/>
        <path id="Trazado_816708" data-name="Trazado 816708" d="M167.243,16.65a2.768,2.768,0,0,1-.194,1.021,2.777,2.777,0,0,1-3.6-3.6,2.777,2.777,0,0,1,3.8,2.581Zm-2.775-9.713A2.087,2.087,0,0,0,164,6.99a2.083,2.083,0,0,0,2.5,2.5,2.083,2.083,0,0,0-2.028-2.549ZM166.029,2.6a2.087,2.087,0,0,0,.468-.053,2.083,2.083,0,0,0-2.5-2.5A2.083,2.083,0,0,0,166.029,2.6Zm28.456,41.8a2.768,2.768,0,0,0-.194-1.021,2.777,2.777,0,0,0-3.6,3.6,2.777,2.777,0,0,0,3.8-2.581Zm-.694,7.631a2.087,2.087,0,0,0-.053-.468,2.083,2.083,0,0,0-2.5,2.5,2.083,2.083,0,0,0,2.549-2.028Zm-2.6,8.5a2.087,2.087,0,0,0,.053.468,2.083,2.083,0,0,0,2.5-2.5,2.083,2.083,0,0,0-2.549,2.028Z" transform="translate(-141.365)" fill="#06995f"/>
      </g>
    </g>
    <rect id="Rect치ngulo_408152" data-name="Rect치ngulo 408152" width="85" height="85" transform="translate(305 794)" fill="none"/>
  </g>
</svg>
