<svg xmlns="http://www.w3.org/2000/svg" width="77" height="77" viewBox="0 0 77 77">
  <g id="Grupo_1115072" data-name="Grupo 1115072" transform="translate(-207.051 -981)">
    <circle id="Elipse_11549" data-name="Elipse 11549" cx="38.5" cy="38.5" r="38.5" transform="translate(207.051 981)" fill="#5c95da"/>
    <g id="microcontrolador" transform="translate(214.051 988)">
      <g id="Grupo_1108407" data-name="Grupo 1108407">
        <g id="Grupo_1108396" data-name="Grupo 1108396">
          <path id="Trazado_898693" data-name="Trazado 898693" d="M50,54H6a4,4,0,0,1-4-4V18a4,4,0,0,1,4-4H40v2a2.006,2.006,0,0,0,2,2H54a2.006,2.006,0,0,0,2-2V14h2a4,4,0,0,1,4,4V42H50Z" fill="#aab2bd"/>
        </g>
        <g id="Grupo_1108397" data-name="Grupo 1108397">
          <circle id="Elipse_11541" data-name="Elipse 11541" cx="3" cy="3" r="3" transform="translate(52 22)" fill="#fcd770"/>
        </g>
        <g id="Grupo_1108398" data-name="Grupo 1108398">
          <circle id="Elipse_11542" data-name="Elipse 11542" cx="3" cy="3" r="3" transform="translate(42 22)" fill="#fcd770"/>
        </g>
        <g id="Grupo_1108399" data-name="Grupo 1108399">
          <circle id="Elipse_11543" data-name="Elipse 11543" cx="2" cy="2" r="2" transform="translate(6 18)" fill="#ff826e"/>
        </g>
        <g id="Grupo_1108400" data-name="Grupo 1108400">
          <path id="Trazado_898694" data-name="Trazado 898694" d="M40,14V12a2.006,2.006,0,0,1,2-2H54a2.006,2.006,0,0,1,2,2v4a2.006,2.006,0,0,1-2,2H42a2.006,2.006,0,0,1-2-2Z" fill="#ff826e"/>
        </g>
        <g id="Grupo_1108401" data-name="Grupo 1108401">
          <circle id="Elipse_11544" data-name="Elipse 11544" cx="3" cy="3" r="3" transform="translate(40 44)" fill="#b4dd7f"/>
        </g>
        <g id="Grupo_1108402" data-name="Grupo 1108402">
          <path id="Trazado_898695" data-name="Trazado 898695" d="M62,42v8a4,4,0,0,1-4,4H50V42Z" fill="#e6e9ed"/>
        </g>
        <g id="Grupo_1108403" data-name="Grupo 1108403">
          <circle id="Elipse_11545" data-name="Elipse 11545" cx="2" cy="2" r="2" transform="translate(54 46)" fill="#ff826e"/>
        </g>
        <g id="Grupo_1108404" data-name="Grupo 1108404">
          <path id="Trazado_898696" data-name="Trazado 898696" d="M42,32H58v6H42Z" fill="#69d6f4"/>
        </g>
        <g id="Grupo_1108405" data-name="Grupo 1108405">
          <path id="Trazado_898697" data-name="Trazado 898697" d="M32,44v1a1,1,0,0,1-1,1H13a1,1,0,0,1-1-1V27a1,1,0,0,1,1-1H31a1,1,0,0,1,1,1V44Z" fill="#fcd770"/>
        </g>
        <g id="Grupo_1108406" data-name="Grupo 1108406">
          <path id="Trazado_898698" data-name="Trazado 898698" d="M16,30H28V42H16Z" fill="#ffeaa7"/>
        </g>
      </g>
      <g id="Grupo_1108408" data-name="Grupo 1108408">
        <path id="Trazado_898699" data-name="Trazado 898699" d="M58,13H57V12a3,3,0,0,0-3-3H42a3,3,0,0,0-3,3v1H6a5.006,5.006,0,0,0-5,5V50a5.006,5.006,0,0,0,5,5H58a5.006,5.006,0,0,0,5-5V18A5.006,5.006,0,0,0,58,13ZM41,12a1,1,0,0,1,1-1H54a1,1,0,0,1,1,1v4a1,1,0,0,1-1,1H42a1,1,0,0,1-1-1ZM3,50V18a3,3,0,0,1,3-3H39v1a3,3,0,0,0,3,3H54a3,3,0,0,0,3-3V15h1a3,3,0,0,1,3,3V41H49V53H6A3,3,0,0,1,3,50Zm55,3H51V43H61v7A3,3,0,0,1,58,53Z"/>
        <path id="Trazado_898700" data-name="Trazado 898700" d="M11,20a3,3,0,1,0-3,3A3,3,0,0,0,11,20ZM7,20a1,1,0,1,1,1,1A1,1,0,0,1,7,20Z"/>
        <path id="Trazado_898701" data-name="Trazado 898701" d="M56,45a3,3,0,1,0,3,3A3,3,0,0,0,56,45Zm0,4a1,1,0,1,1,1-1A1,1,0,0,1,56,49Z"/>
        <path id="Trazado_898702" data-name="Trazado 898702" d="M15,43H29V29H15Zm2-12H27V41H17Z"/>
        <path id="Trazado_898703" data-name="Trazado 898703" d="M31,25V21H29v4H27V21H25v4H23V21H21v4H19V21H17v4H15V21H13v4a2,2,0,0,0-2,2H7v2h4v2H7v2h4v2H7v2h4v2H7v2h4v2H7v2h4a2,2,0,0,0,2,2v4h2V47h2v4h2V47h2v4h2V47h2v4h2V47h2v4h2V47a2,2,0,0,0,2-2h4V43H33V41h4V39H33V37h4V35H33V33h4V31H33V29h4V27H33A2,2,0,0,0,31,25ZM13,45V27H31V45Z"/>
        <path id="Trazado_898704" data-name="Trazado 898704" d="M45,29a4,4,0,1,0-4-4A4,4,0,0,0,45,29Zm0-6a2,2,0,1,1-2,2A2,2,0,0,1,45,23Z"/>
        <path id="Trazado_898705" data-name="Trazado 898705" d="M55,29a4,4,0,1,0-4-4A4,4,0,0,0,55,29Zm0-6a2,2,0,1,1-2,2A2,2,0,0,1,55,23Z"/>
        <path id="Trazado_898706" data-name="Trazado 898706" d="M59,31H41v8H59Zm-2,6H43V33H57Z"/>
        <path id="Trazado_898707" data-name="Trazado 898707" d="M43,43a4,4,0,1,0,4,4A4,4,0,0,0,43,43Zm0,6a2,2,0,1,1,2-2A2,2,0,0,1,43,49Z"/>
        <path id="Trazado_898708" data-name="Trazado 898708" d="M51,13h2v2H51Z"/>
        <path id="Trazado_898709" data-name="Trazado 898709" d="M47,13h2v2H47Z"/>
        <path id="Trazado_898710" data-name="Trazado 898710" d="M43,13h2v2H43Z"/>
      </g>
    </g>
  </g>
</svg>
